<svg width="723" height="232" viewBox="0 0 723 232" fill="none" xmlns="http://www.w3.org/2000/svg">
<path d="M95.4332 43.0909H119.148V128.616C119.148 137.991 116.932 146.237 112.5 153.354C108.111 160.47 101.932 166.031 93.9631 170.037C85.9943 174 76.6832 175.982 66.0298 175.982C55.3338 175.982 46.0014 174 38.0327 170.037C30.0639 166.031 23.8849 160.47 19.4957 153.354C15.1065 146.237 12.9119 137.991 12.9119 128.616V43.0909H36.6264V126.635C36.6264 132.089 37.8196 136.947 40.206 141.209C42.6349 145.47 46.044 148.815 50.4332 151.244C54.8224 153.631 60.0213 154.824 66.0298 154.824C72.0384 154.824 77.2372 153.631 81.6264 151.244C86.0582 148.815 89.4673 145.47 91.8537 141.209C94.2401 136.947 95.4332 132.089 95.4332 126.635V43.0909ZM167.94 116.472V174H144.801V75.8182H166.917V92.5014H168.068C170.326 87.0043 173.927 82.6364 178.871 79.3977C183.856 76.1591 190.014 74.5398 197.344 74.5398C204.119 74.5398 210.021 75.9886 215.049 78.8864C220.121 81.7841 224.041 85.9815 226.811 91.4787C229.623 96.9758 231.008 103.645 230.966 111.486V174H207.826V115.065C207.826 108.503 206.122 103.368 202.713 99.6605C199.346 95.9531 194.68 94.0994 188.714 94.0994C184.666 94.0994 181.065 94.9943 177.912 96.7841C174.801 98.5312 172.351 101.067 170.561 104.391C168.814 107.714 167.94 111.741 167.94 116.472ZM255.388 174V75.8182H278.528V174H255.388ZM267.022 61.8835C263.357 61.8835 260.204 60.669 257.562 58.2401C254.92 55.7685 253.599 52.8068 253.599 49.3551C253.599 45.8608 254.92 42.8991 257.562 40.4702C260.204 37.9986 263.357 36.7628 267.022 36.7628C270.729 36.7628 273.883 37.9986 276.482 40.4702C279.124 42.8991 280.445 45.8608 280.445 49.3551C280.445 52.8068 279.124 55.7685 276.482 58.2401C273.883 60.669 270.729 61.8835 267.022 61.8835ZM304.245 174V43.0909H388.108V62.9702H327.959V98.5099H382.356V118.389H327.959V174H304.245ZM432.73 43.0909V174H409.591V43.0909H432.73ZM500.251 175.918C490.663 175.918 482.353 173.808 475.322 169.589C468.291 165.371 462.836 159.469 458.958 151.884C455.123 144.298 453.206 135.435 453.206 125.293C453.206 115.151 455.123 106.266 458.958 98.6378C462.836 91.0099 468.291 85.0866 475.322 80.8679C482.353 76.6491 490.663 74.5398 500.251 74.5398C509.839 74.5398 518.149 76.6491 525.18 80.8679C532.211 85.0866 537.645 91.0099 541.48 98.6378C545.358 106.266 547.297 115.151 547.297 125.293C547.297 135.435 545.358 144.298 541.48 151.884C537.645 159.469 532.211 165.371 525.18 169.589C518.149 173.808 509.839 175.918 500.251 175.918ZM500.379 157.381C505.578 157.381 509.924 155.953 513.419 153.098C516.913 150.2 519.512 146.322 521.217 141.464C522.964 136.607 523.838 131.195 523.838 125.229C523.838 119.22 522.964 113.787 521.217 108.929C519.512 104.028 516.913 100.129 513.419 97.2315C509.924 94.3338 505.578 92.8849 500.379 92.8849C495.052 92.8849 490.62 94.3338 487.083 97.2315C483.589 100.129 480.968 104.028 479.221 108.929C477.517 113.787 476.664 119.22 476.664 125.229C476.664 131.195 477.517 136.607 479.221 141.464C480.968 146.322 483.589 150.2 487.083 153.098C490.62 155.953 495.052 157.381 500.379 157.381ZM585.286 174L557.545 75.8182H581.132L598.39 144.852H599.285L616.927 75.8182H640.258L657.9 144.469H658.859L675.862 75.8182H699.512L671.707 174H647.609L629.2 107.651H627.857L609.448 174H585.286Z" fill="url(#paint0_linear_6_243)"/>
<defs>
<linearGradient id="paint0_linear_6_243" x1="0" y1="116" x2="723" y2="116" gradientUnits="userSpaceOnUse">
<stop offset="0.350962" stop-color="#6FB1FC"/>
<stop offset="1" stop-color="#4669F7"/>
</linearGradient>
</defs>
</svg>
